<svg width="151" height="50" viewBox="0 0 151 50" fill="none" xmlns="http://www.w3.org/2000/svg">
<rect width="60" height="50" rx="4" fill="#4C4982"/>
<path d="M9.416 38.672V34.672C9.992 34.672 10.4827 34.64 10.888 34.576C11.2933 34.512 11.6133 34.3947 11.848 34.224C12.0827 34.032 12.2533 33.7653 12.36 33.424C12.4667 33.0613 12.52 32.6027 12.52 32.048V12.08H18.248V32.304C18.248 33.712 18.0667 34.896 17.704 35.856C17.3627 36.7947 16.7547 37.4987 15.88 37.968C15.0053 38.4373 13.7787 38.672 12.2 38.672H9.416ZM27.8683 38.32C26.5456 38.32 25.3936 38.096 24.4123 37.648C23.4523 37.2 22.7056 36.528 22.1723 35.632C21.6603 34.736 21.4043 33.616 21.4043 32.272V25.232C21.4043 23.888 21.6603 22.768 22.1723 21.872C22.7056 20.976 23.4523 20.304 24.4123 19.856C25.3936 19.408 26.5456 19.184 27.8683 19.184C29.1909 19.184 30.3323 19.408 31.2923 19.856C32.2736 20.304 33.0309 20.976 33.5643 21.872C34.0976 22.768 34.3643 23.888 34.3643 25.232V32.272C34.3643 33.616 34.0976 34.736 33.5643 35.632C33.0309 36.528 32.2736 37.2 31.2923 37.648C30.3323 38.096 29.1909 38.32 27.8683 38.32ZM27.9003 34.864C28.2416 34.864 28.5083 34.7787 28.7003 34.608C28.8923 34.416 29.0203 34.16 29.0843 33.84C29.1696 33.4987 29.2123 33.0933 29.2123 32.624V24.88C29.2123 24.4107 29.1696 24.016 29.0843 23.696C29.0203 23.3547 28.8923 23.0987 28.7003 22.928C28.5083 22.736 28.2416 22.64 27.9003 22.64C27.5589 22.64 27.2923 22.736 27.1003 22.928C26.9083 23.0987 26.7696 23.3547 26.6843 23.696C26.5989 24.016 26.5563 24.4107 26.5563 24.88V32.624C26.5563 33.0933 26.5989 33.4987 26.6843 33.84C26.7696 34.16 26.9083 34.416 27.1003 34.608C27.2923 34.7787 27.5589 34.864 27.9003 34.864ZM46.441 38.32C45.7583 38.32 45.0757 38.1707 44.393 37.872C43.7317 37.552 43.0917 37.1253 42.473 36.592V38H37.257V12.08H42.473V20.848C43.113 20.2933 43.7743 19.8773 44.457 19.6C45.161 19.3227 45.8437 19.184 46.505 19.184C47.209 19.184 47.8063 19.3227 48.297 19.6C48.809 19.8773 49.225 20.272 49.545 20.784C49.865 21.2747 50.0997 21.8507 50.249 22.512C50.3983 23.1733 50.473 23.8773 50.473 24.624V32.592C50.473 33.744 50.313 34.7467 49.993 35.6C49.6943 36.4533 49.2463 37.1253 48.649 37.616C48.0517 38.0853 47.3157 38.32 46.441 38.32ZM43.913 34.96C44.2543 34.96 44.521 34.864 44.713 34.672C44.905 34.48 45.0437 34.2347 45.129 33.936C45.2143 33.616 45.257 33.264 45.257 32.88V24.24C45.257 23.8773 45.2143 23.5573 45.129 23.28C45.0437 22.9813 44.905 22.7467 44.713 22.576C44.5423 22.4053 44.297 22.32 43.977 22.32C43.6997 22.32 43.433 22.384 43.177 22.512C42.9423 22.6187 42.7077 22.7573 42.473 22.928V34.448C42.7077 34.5973 42.9423 34.7253 43.177 34.832C43.433 34.9173 43.6783 34.96 43.913 34.96Z" fill="white"/>
<path d="M66.0228 38V19.044H62.6068V15.32H74.4508V19.044H71.0628V38H66.0228ZM76.2516 38V21.816H80.8156V24.504C81.3382 23.5707 81.8609 22.8613 82.3836 22.376C82.9062 21.872 83.5409 21.62 84.2876 21.62C84.4369 21.62 84.5676 21.6293 84.6796 21.648C84.7916 21.648 84.8942 21.6667 84.9876 21.704V26.24C84.7822 26.1467 84.5489 26.072 84.2876 26.016C84.0449 25.9413 83.7836 25.904 83.5036 25.904C82.9809 25.904 82.4956 26.044 82.0476 26.324C81.5996 26.604 81.1889 26.9867 80.8156 27.472V38H76.2516ZM90.1643 38.28C89.343 38.28 88.6523 38.084 88.0923 37.692C87.5323 37.3 87.1123 36.8053 86.8323 36.208C86.5523 35.592 86.4123 34.9667 86.4123 34.332C86.4123 33.324 86.6083 32.4747 87.0003 31.784C87.411 31.0933 87.943 30.5147 88.5963 30.048C89.2496 29.5813 89.9683 29.1893 90.7523 28.872C91.5363 28.536 92.311 28.2373 93.0763 27.976V26.352C93.0763 26.072 93.0483 25.8293 92.9923 25.624C92.9363 25.4 92.843 25.232 92.7123 25.12C92.5816 24.9893 92.3856 24.924 92.1243 24.924C91.863 24.924 91.6576 24.98 91.5083 25.092C91.3776 25.204 91.2843 25.3627 91.2283 25.568C91.1723 25.7547 91.135 25.9693 91.1163 26.212L91.0043 27.388L86.7483 27.22C86.8416 25.2787 87.355 23.8507 88.2883 22.936C89.2403 22.0027 90.659 21.536 92.5443 21.536C94.187 21.536 95.4096 21.9933 96.2123 22.908C97.0336 23.804 97.4443 24.9707 97.4443 26.408V33.968C97.4443 34.64 97.4536 35.228 97.4723 35.732C97.5096 36.236 97.547 36.6747 97.5843 37.048C97.6403 37.4213 97.687 37.7387 97.7243 38H93.6363C93.5803 37.5707 93.515 37.104 93.4403 36.6C93.3656 36.096 93.3096 35.7973 93.2723 35.704C93.0856 36.376 92.731 36.9733 92.2083 37.496C91.7043 38.0187 91.023 38.28 90.1643 38.28ZM91.7883 35.2C91.975 35.2 92.143 35.1627 92.2923 35.088C92.4603 35.0133 92.6096 34.9107 92.7403 34.78C92.871 34.6493 92.983 34.5187 93.0763 34.388V29.964C92.703 30.188 92.3576 30.4213 92.0403 30.664C91.723 30.888 91.4523 31.14 91.2283 31.42C91.0043 31.7 90.827 32.008 90.6963 32.344C90.5843 32.6613 90.5283 33.0253 90.5283 33.436C90.5283 33.9773 90.6403 34.4067 90.8643 34.724C91.0883 35.0413 91.3963 35.2 91.7883 35.2ZM105.413 38.28C104.237 38.28 103.229 38.0653 102.389 37.636C101.567 37.2067 100.933 36.5907 100.485 35.788C100.037 34.9853 99.8127 34.0147 99.8127 32.876V26.94C99.8127 25.7827 100.037 24.8027 100.485 24C100.933 23.1973 101.567 22.5907 102.389 22.18C103.229 21.7507 104.237 21.536 105.413 21.536C106.57 21.536 107.55 21.7133 108.353 22.068C109.174 22.4227 109.799 22.964 110.229 23.692C110.658 24.4013 110.873 25.3067 110.873 26.408V28.116H106.477V26.268C106.477 25.8387 106.43 25.512 106.337 25.288C106.262 25.0453 106.141 24.8773 105.973 24.784C105.823 24.6907 105.637 24.644 105.413 24.644C105.189 24.644 105.002 24.7093 104.853 24.84C104.703 24.952 104.591 25.148 104.517 25.428C104.442 25.6893 104.405 26.0627 104.405 26.548V33.268C104.405 33.996 104.489 34.4907 104.657 34.752C104.843 35.0133 105.105 35.144 105.441 35.144C105.683 35.144 105.879 35.0973 106.029 35.004C106.178 34.892 106.29 34.724 106.365 34.5C106.439 34.2573 106.477 33.94 106.477 33.548V31.392H110.873V33.352C110.873 34.4347 110.649 35.3493 110.201 36.096C109.771 36.824 109.146 37.3747 108.325 37.748C107.522 38.1027 106.551 38.28 105.413 38.28ZM113.246 38V15.32H117.782V27.892L121.758 21.816H126.882L122.57 28.452L126.826 38H121.842L118.986 30.3L117.782 31.84V38H113.246ZM133.55 38.28C132.374 38.28 131.366 38.0747 130.526 37.664C129.686 37.2347 129.042 36.6187 128.594 35.816C128.146 34.9947 127.922 34.0147 127.922 32.876V26.94C127.922 25.7827 128.146 24.8027 128.594 24C129.042 23.1973 129.686 22.5907 130.526 22.18C131.385 21.7507 132.393 21.536 133.55 21.536C134.745 21.536 135.734 21.7413 136.518 22.152C137.321 22.5627 137.918 23.1693 138.31 23.972C138.721 24.7747 138.926 25.764 138.926 26.94V30.188H132.43V33.296C132.43 33.7067 132.477 34.0427 132.57 34.304C132.663 34.5653 132.794 34.752 132.962 34.864C133.13 34.976 133.326 35.032 133.55 35.032C133.774 35.032 133.97 34.9853 134.138 34.892C134.325 34.78 134.465 34.612 134.558 34.388C134.67 34.164 134.726 33.856 134.726 33.464V31.756H138.926V33.324C138.926 34.9667 138.45 36.208 137.498 37.048C136.546 37.8693 135.23 38.28 133.55 38.28ZM132.43 28.06H134.726V26.436C134.726 26.0067 134.67 25.6707 134.558 25.428C134.465 25.1853 134.325 25.0173 134.138 24.924C133.97 24.8307 133.765 24.784 133.522 24.784C133.298 24.784 133.102 24.84 132.934 24.952C132.785 25.064 132.663 25.26 132.57 25.54C132.477 25.8013 132.43 26.184 132.43 26.688V28.06ZM141.466 38V21.816H146.03V24.504C146.553 23.5707 147.076 22.8613 147.598 22.376C148.121 21.872 148.756 21.62 149.502 21.62C149.652 21.62 149.782 21.6293 149.894 21.648C150.006 21.648 150.109 21.6667 150.202 21.704V26.24C149.997 26.1467 149.764 26.072 149.502 26.016C149.26 25.9413 148.998 25.904 148.718 25.904C148.196 25.904 147.71 26.044 147.262 26.324C146.814 26.604 146.404 26.9867 146.03 27.472V38H141.466Z" fill="#4C4982"/>
</svg>
